<?xml version="1.0" encoding="utf-8"?>
<!-- Generator: Adobe Illustrator 18.0.0, SVG Export Plug-In . SVG Version: 6.00 Build 0)  -->
<!DOCTYPE svg PUBLIC "-//W3C//DTD SVG 1.1//EN" "http://www.w3.org/Graphics/SVG/1.1/DTD/svg11.dtd">
<svg version="1.1" id="レイヤー_1" xmlns="http://www.w3.org/2000/svg" xmlns:xlink="http://www.w3.org/1999/xlink" x="0px"
	 y="0px" viewBox="0 0 115 20" enable-background="new 0 0 115 20" xml:space="preserve">
<path fill="#FFFFFF" d="M0.2057583,20V0h4.3204303c0,6.4976501,0,9.6951523,0,9.6951523
	c0,3.2305832,2.4004455,5.7939644,5.6975322,5.7939644c3.2939348,0,5.6641102-2.7235346,5.6641102-5.6975012
	c0-2.9770594-2.5937099-5.6310291-5.6975317-5.6310291c0,0-3.1038213,0-4.1605859,0V0h14.1757355v20H0.2057583z
	 M18.6385422,1.567215H7.4067845v1.2469082h2.7201333c4.0307322,0,7.0050097,3.3604379,7.0050097,6.9774923
	s-2.7810421,7.0077906-7.0683908,7.0077906S3.152518,13.2154341,3.152518,9.8549967c0,0,0-3.3573465,0-8.2877817H1.7757558
	v16.8627872h16.8627872V1.567215z M44.2692604,9.7585335c-0.2235336,0.0964632-0.1601524,0.3230886,0,0.41646
	c1.4101562,0.7701588,1.9533768,1.8238316,1.9533768,3.3607473c0,1.566906,0,0.6066036,0,3.1369028
	C46.2226372,19.199852,44.4955788,20,42.892498,20c0,0-1.600296,0-18.5898438,0V0h4.767498c0,14.2721987,0,14.6224957,0,14.6224957
	c0,0.3230896,0.1598454,0.4801512,0.4801826,0.4801512c0.3199654,0,10.9448433,0,11.2317276,0
	c0.3199959,0,0.5101395-0.2235346,0.5101395-0.4801512s0-1.566906,0-1.8235226c0-0.2538338-0.2204399-0.5104494-0.5101395-0.5104494
	c0,0-0.2566185,0-9.0882397,0V7.358088c8.7348499,0,9.0882397,0,9.0882397,0c0.3531113,0,0.5101395-0.2235346,0.5101395-0.5101409
	c0-0.2566166,0-1.2802992,0-1.567215c0-0.2896981-0.2535248-0.5132327-0.5101395-0.5132327c0,0-0.2566185,0-9.0882397,0V0
	C40.2054482,0,42.892498,0,42.892498,0c2.6901436,0,3.3301392,1.6636779,3.3301392,3.3304477c0,1.6605864,0,0.3169057,0,3.0373487
	S44.4955788,9.6648531,44.2692604,9.7585335z M65.4193954,20H51.790287c-1.8266144,0-3.3273582-1.5066166-3.3273582-3.3273563
	V3.3304477C48.4629288,1.4735345,49.9636726,0,51.790287,0h13.6291084c1.8266144,0,3.330452,1.4735345,3.330452,3.3304477
	v13.3421955C68.7498474,18.4933834,67.2460098,20,65.4193954,20z M63.9792557,5.2807322
	c0-0.2896981-0.2235374-0.5132327-0.5101433-0.5132327h-9.7585335c-0.2566147,0-0.4801483,0.2235346-0.4801483,0.5132327v9.3417635
	c0,0.2566166,0.2235336,0.4801512,0.4801483,0.4801512h9.7585335c0.2866058,0,0.5101433-0.2235346,0.5101433-0.4801512V5.2807322z
	 M86.9260101,5.9510264c0-0.4136782,0-0.6702943,0-0.6702943c0-0.2566166-0.2266235-0.5132327-0.5132294-0.5132327
	c-0.2869186,0-9.8250046,0-10.1753006,0c-0.3199692,0-0.4798431,0.1901436-0.4798431,0.5132327c0,0.2869158,0,1.5038338,0,1.7573586
	c0,0.2566161,0.1901398,0.4801507,0.4798431,0.4801507c0.286911,0,9.7916107,0,12.0955963,0
	c2.3036728,0,3.3270416,1.5366063,3.3270416,3.3604379c0,1.7935324,0,3.4871998,0,5.7939644
	C91.6601181,18.9432354,90.2230988,20,88.3330765,20c-1.8569183,0-11.9685287,0-14.0155869,0
	c-2.0473633,0-3.3273544-1.3133812-3.3273544-3.3273563c0,0,0-2.016757,0-2.816905h4.7675018c0,0.5101404,0,0.766757,0,0.766757
	c0,0.2566166,0.1901398,0.4801512,0.4798431,0.4801512c0.286911,0,9.7916107,0,10.1753006,0
	c0.3802872,0,0.5132294-0.1901436,0.5132294-0.4801512c0-0.2869158,0-1.3767624,0-1.6636782
	c0-0.2535248-0.2566147-0.4798412-0.5132294-0.4798412s-10.5586853,0-12.0952911,0
	c-1.536911,0-3.3273544-1.3105984-3.3273544-3.3273563c0-2.0470567,0-4.0941129,0-5.8211722
	C70.9901352,1.6002969,72.2701263,0,74.3174896,0c2.0470581,0,11.8386765,0,14.0155869,0
	c2.2069016,0,3.3270416,1.3436804,3.3270416,3.3304477c0,0,0,1.9805837,0,2.6205788H86.9260101z M110.0295258,5.9510264
	c0-0.4136782,0-0.6702943,0-0.6702943c0-0.2566166-0.2262878-0.5132327-0.4829025-0.5132327c-0.2869492,0-9.8550262,0-10.1722412,0
	c-0.3530807,0-0.513237,0.1901436-0.513237,0.5132327c0,0.2869158,0,1.5038338,0,1.7573586
	c0,0.2566161,0.2235336,0.4801507,0.513237,0.4801507c0.2538681,0,9.7888641,0,12.0925064,0
	c2.3036728,0,3.3273544,1.5366063,3.3273544,3.3604379c0,1.7935324,0,3.4871998,0,5.7939644
	c0,2.2705917-1.4735336,3.3273563-3.3273544,3.3273563c-1.8872147,0-11.9988251,0-14.0458832,0
	c-2.0501175,0-3.3273544-1.3133812-3.3273544-3.3273563c0,0,0-2.016757,0-2.816905h4.7674942c0,0.5101404,0,0.766757,0,0.766757
	c0,0.2566166,0.2235336,0.4801512,0.513237,0.4801512c0.2538681,0,9.7585297,0,10.1722412,0
	c0.3833771,0,0.4829025-0.1901436,0.4829025-0.4801512c0-0.2869158,0-1.3767624,0-1.6636782
	c0-0.2535248-0.2262878-0.4798412-0.4829025-0.4798412c-0.2869492,0-10.5587158,0-12.125618,0
	c-1.5368805,0-3.3273544-1.3105984-3.3273544-3.3273563c0-2.0470567,0-4.0941129,0-5.8211722
	C94.0936508,1.6002969,95.3708878,0,97.4210052,0c2.0804825,0,11.8386688,0,14.0458832,0
	c2.1769104,0,3.3273544,1.3436804,3.3273544,3.3304477c0,0,0,1.9805837,0,2.6205788H110.0295258z"/>
</svg>
